HIERARCHY
ROOT Root
{
	OFFSET 0.00 0.00 0.00
	CHANNELS 6 Xposition Yposition Zposition Xrotation Yrotation Zrotation
	JOINT L_Femur
	{
		OFFSET 2.78527 0.00000 0.00000
		CHANNELS 3 Xrotation Yrotation Zrotation
		JOINT L_Tibia
		{
			OFFSET 0.00000 -16.41095 0.00000
			CHANNELS 3 Xrotation Yrotation Zrotation
			JOINT L_Foot
			{
				OFFSET 0.00000 -14.21163 0.00000
				CHANNELS 3 Xrotation Yrotation Zrotation
				JOINT L_Toe
				{
					OFFSET 0.00000 -1.60827 6.00215
					CHANNELS 3 Xrotation Yrotation Zrotation
					End Site
					{
						OFFSET 0.00000 0.00000 2.95275
					}
				}
			}
		}
	}
	JOINT R_Femur
	{
		OFFSET -2.78527 0.00000 0.00000
		CHANNELS 3 Xrotation Yrotation Zrotation
		JOINT R_Tibia
		{
			OFFSET 0.00000 -16.41095 0.00000
			CHANNELS 3 Xrotation Yrotation Zrotation
			JOINT R_Foot
			{
				OFFSET 0.00000 -14.21163 0.00000
				CHANNELS 3 Xrotation Yrotation Zrotation
				JOINT R_Toe
				{
					OFFSET 0.00000 -1.60827 6.00215
					CHANNELS 3 Xrotation Yrotation Zrotation
					End Site
					{
						OFFSET 0.00000 0.00000 2.95275
					}
				}
			}
		}
	}
	JOINT LowerBack
	{
		OFFSET 0.00000 0.03937 0.00000
		CHANNELS 3 Xrotation Yrotation Zrotation
		JOINT Thorax
		{
			OFFSET 0.00000 7.01329 0.00000
			CHANNELS 3 Xrotation Yrotation Zrotation
			JOINT Neck
			{
				OFFSET 0.00000 7.25825 0.00000
				CHANNELS 3 Xrotation Yrotation Zrotation
				JOINT Head
				{
					OFFSET 0.00000 5.63334 0.00000
					CHANNELS 3 Xrotation Yrotation Zrotation
					End Site
					{
						OFFSET 0.00000 4.52755 0.00000
					}
				}
			}
			JOINT L_Collar
			{
				OFFSET 0.00000 7.25825 0.00000
				CHANNELS 3 Xrotation Yrotation Zrotation
				JOINT L_Humerus
				{
					OFFSET 6.91821 -0.00003 0.00000
					CHANNELS 3 Xrotation Yrotation Zrotation
					JOINT L_Elbow
					{
						OFFSET 10.34006 -0.00004 0.00000
						CHANNELS 3 Xrotation Yrotation Zrotation
						JOINT L_Wrist
						{
							OFFSET 7.25554 -0.00003 0.00000
							CHANNELS 3 Xrotation Yrotation Zrotation
							JOINT L_Thumb
							{
								OFFSET 0.00000 0.00000 0.00000
								CHANNELS 3 Xrotation Yrotation Zrotation
								End Site
								{
									OFFSET 0.00000 0.00000 3.93700
								}
							}
							JOINT L_Wrist_End
							{
								OFFSET 3.93700 -0.00001 0.00000
								CHANNELS 3 Xrotation Yrotation Zrotation
							}
						}
					}
				}
			}
			JOINT R_Collar
			{
				OFFSET 0.00000 7.25825 0.00000
				CHANNELS 3 Xrotation Yrotation Zrotation
				JOINT R_Humerus
				{
					OFFSET -6.91821 -0.00003 0.00000
					CHANNELS 3 Xrotation Yrotation Zrotation
					JOINT R_Elbow
					{
						OFFSET -10.34006 -0.00004 0.00000
						CHANNELS 3 Xrotation Yrotation Zrotation
						JOINT R_Wrist
						{
							OFFSET -7.25554 -0.00003 0.00000
							CHANNELS 3 Xrotation Yrotation Zrotation
							JOINT R_Thumb
							{
								OFFSET 0.00000 0.00000 0.00000
								CHANNELS 3 Xrotation Yrotation Zrotation
								End Site
								{
									OFFSET 0.00000 0.00000 3.93700
								}
							}
							JOINT R_Wrist_End
							{
								OFFSET -5.39369 -0.00002 0.00000
								CHANNELS 3 Xrotation Yrotation Zrotation
							}
						}
					}
				}
			}
		}
	}
}
MOTION
Frames: 16
Frame Time: 0.066664
 -21.0607 32.9089 -4.0753 5.7081 -12.6450 -1.1427 -0.6191 32.3171 7.4734 2.5267 0.0000 0.0000 -8.6246 -6.4282 -1.0193 -6.6956 0.0000 -0.0000 -4.5411 4.7586 -3.7053 3.8533 -0.0000 0.0000 -6.9652 8.5092 6.2304 -10.0218 0.0000 -0.0000 -3.4105 -1.2886 -9.3231 0.5567 -0.9364 11.2973 0.5213 -38.6958 4.2938 -2.3164 49.3091 5.4619 -4.2931 31.4722 18.9025 -27.2830 1.3494 -25.9067 -0.0001 -18.2555 -0.0000 -8.4437 5.0541 0.0010 -0.0000 0.0000 -0.0000 -0.0000 0.0000 -0.0000 -0.9431 -10.4969 -23.1247 -50.3205 -11.1309 33.8324 -0.0000 10.0770 0.0000 0.6605 2.9482 -15.2765 -0.0000 0.0000 -0.0000 -0.0000 0.0000 -0.0000
 -21.0613 32.9091 -4.0643 5.7360 -12.5213 -1.1261 -0.6134 32.3051 7.4496 2.4773 -0.0000 -0.0000 -8.6143 -6.5264 -1.0275 -6.6577 0.0000 0.0000 -4.5144 4.6352 -3.7341 3.8112 -0.0000 0.0000 -6.9547 8.5174 6.3087 -10.0827 0.0000 0.0000 -3.4052 -1.2780 -9.3411 0.5524 -0.9250 11.2984 0.5367 -38.7876 4.2780 -2.4123 49.4025 5.7652 -4.3046 31.4854 18.9416 -27.3475 1.2668 -25.7105 -0.0001 -18.2244 -0.0000 -8.3586 4.9752 -0.0988 -0.0000 0.0000 -0.0000 -0.0000 0.0000 -0.0000 -0.9507 -10.4778 -23.1263 -50.3154 -11.0719 33.7641 -0.0000 10.2303 0.0000 0.7762 2.8880 -15.2996 -0.0000 0.0000 -0.0000 -0.0000 0.0000 -0.0000
 -21.0607 32.9074 -4.0405 5.7744 -12.3333 -1.1167 -0.6107 32.2071 7.4312 2.4519 0.0000 0.0000 -8.6098 -6.6174 -0.9940 -6.6280 0.0000 -0.0000 -4.4521 4.5323 -3.7656 3.7479 -0.0000 0.0000 -6.9744 8.4288 6.3524 -10.0917 0.0000 -0.0000 -3.4211 -1.2800 -9.3382 0.5318 -0.9313 11.3121 0.5997 -38.8697 4.3204 -2.3750 49.5236 5.8739 -4.2954 31.4968 18.9497 -27.4435 1.2115 -25.5796 -0.0001 -18.2887 -0.0000 -8.3542 4.9407 -0.1568 -0.0000 0.0000 -0.0000 -0.0000 0.0000 -0.0000 -0.9323 -10.4845 -23.1501 -50.2695 -10.9524 33.7295 -0.0000 10.2699 0.0000 0.9374 2.7638 -15.2659 -0.0000 0.0000 -0.0000 -0.0000 0.0000 -0.0000
 -21.0567 32.9085 -4.0050 5.8219 -12.1059 -1.1111 -0.5800 32.1022 7.3975 2.3838 0.0000 0.0000 -8.5957 -6.7203 -0.9285 -6.6431 0.0000 -0.0000 -4.3734 4.4801 -3.7962 3.6998 -0.0000 0.0000 -7.0190 8.2539 6.3080 -10.0730 0.0000 0.0000 -3.4645 -1.2794 -9.3351 0.5312 -0.9394 11.3182 0.6628 -38.9929 4.3336 -2.5202 49.6437 6.1905 -4.3430 31.4693 18.9863 -27.3643 1.0452 -25.4883 -0.0001 -18.1543 -0.0000 -8.3783 4.9483 -0.2440 -0.0000 0.0000 -0.0000 -0.0000 0.0000 -0.0000 -0.9291 -10.5052 -23.1344 -50.2296 -10.8837 33.7382 -0.0000 10.2556 0.0000 0.9907 2.7547 -15.3438 -0.0000 -0.0000 0.0000 -0.0000 -0.0000 0.0000
 -21.0550 32.9068 -3.9630 5.8670 -11.9319 -1.1164 -0.5043 31.9966 7.3605 2.2752 -0.0000 -0.0000 -8.5777 -6.7692 -0.8947 -6.6395 0.0000 -0.0000 -4.3085 4.3762 -3.8156 3.6857 -0.0000 -0.0000 -7.0839 8.1828 6.3096 -10.0542 0.0000 -0.0000 -3.5101 -1.2856 -9.3248 0.4964 -0.9568 11.3248 0.6846 -39.1004 4.3519 -2.5557 49.7787 6.2710 -4.4184 31.4658 19.0711 -27.3719 0.9241 -25.3413 -0.0001 -17.9551 -0.0000 -8.4666 4.9371 -0.3500 -0.0000 0.0000 -0.0000 -0.0000 0.0000 -0.0000 -0.9695 -10.5087 -23.1441 -50.3220 -10.8278 33.8057 -0.0000 10.1007 0.0000 1.0644 2.6874 -15.2357 -0.0000 0.0000 -0.0000 -0.0000 0.0000 -0.0000
 -21.0536 32.9060 -3.9147 5.9073 -11.7832 -1.1387 -0.4177 31.8369 7.3371 2.1779 0.0000 0.0000 -8.5492 -6.7350 -0.8340 -6.6350 -0.0000 0.0000 -4.1986 4.2878 -3.8199 3.5922 -0.0000 -0.0000 -7.0849 8.1237 6.2973 -10.0735 0.0000 -0.0000 -3.5462 -1.2771 -9.3151 0.4534 -0.9585 11.3426 0.7599 -39.2122 4.4029 -2.7613 49.9204 6.2755 -4.4965 31.4520 19.1933 -27.0533 0.6058 -25.0328 -0.0001 -17.7246 -0.0000 -8.5065 4.9514 -0.4005 -0.0000 0.0000 -0.0000 -0.0000 0.0000 -0.0000 -0.9610 -10.5369 -23.1403 -50.3298 -10.7332 33.7569 -0.0000 10.0740 0.0000 1.0949 2.6651 -15.1674 -0.0000 0.0000 -0.0000 -0.0000 0.0000 -0.0000
 -21.0484 32.9070 -3.8653 5.9478 -11.6222 -1.1643 -0.3538 31.8081 7.3276 2.0860 0.0000 0.0000 -8.5325 -6.8458 -0.7737 -6.5996 0.0000 -0.0000 -4.0836 4.1947 -3.8278 3.4909 -0.0000 0.0000 -7.0811 8.0580 6.2658 -10.0636 0.0000 -0.0000 -3.5566 -1.2724 -9.2973 0.4077 -0.9600 11.3517 0.7895 -39.2812 4.4160 -2.9310 50.0983 6.3127 -4.6112 31.4578 19.3020 -27.0273 0.4166 -24.6542 -0.0001 -17.6567 -0.0000 -8.5333 4.9603 -0.5112 -0.0000 0.0000 -0.0000 -0.0000 0.0000 -0.0000 -1.0209 -10.5741 -23.1630 -50.3718 -10.6756 33.5514 -0.0000 10.0328 0.0000 1.0776 2.7014 -15.1507 -0.0000 0.0000 -0.0000 -0.0000 0.0000 -0.0000
 -21.0426 32.9090 -3.8232 5.9842 -11.4858 -1.1857 -0.3218 31.7216 7.3251 2.0601 -0.0000 0.0000 -8.5234 -6.8889 -0.7001 -6.6567 0.0000 -0.0000 -4.0077 4.1013 -3.8366 3.4394 -0.0000 -0.0000 -7.0708 8.0170 6.2360 -10.0891 0.0000 -0.0000 -3.5449 -1.2855 -9.2791 0.3686 -0.9750 11.3469 0.8571 -39.3721 4.4572 -2.9466 50.2276 6.1949 -4.6666 31.4819 19.3589 -26.9400 0.2966 -24.2642 -0.0001 -17.8425 -0.0000 -8.3665 4.9248 -0.5723 -0.0000 0.0000 -0.0000 -0.0000 0.0000 -0.0000 -1.0474 -10.6275 -23.2053 -50.4714 -10.6669 33.3726 -0.0000 10.1138 0.0000 0.9625 2.7290 -15.1780 -0.0000 -0.0000 0.0000 -0.0000 -0.0000 0.0000
 -21.0339 32.9071 -3.7942 5.9953 -11.4290 -1.2014 -0.3166 31.6870 7.3321 2.1203 0.0000 0.0000 -8.5813 -6.9108 -0.6469 -6.5823 0.0000 -0.0000 -4.0036 4.0427 -3.8486 3.5272 -0.0000 0.0000 -7.1373 8.0152 6.2503 -10.0289 0.0000 -0.0000 -3.5311 -1.2772 -9.2710 0.3800 -0.9649 11.3409 0.9278 -39.3896 4.4834 -2.7443 50.3072 5.9648 -4.6574 31.5009 19.3995 -27.0466 0.2682 -24.0708 -0.0001 -17.8920 -0.0000 -8.3700 4.8945 -0.5944 -0.0000 0.0000 -0.0000 -0.0000 0.0000 -0.0000 -1.0470 -10.6330 -23.2555 -50.5195 -10.6103 33.2198 -0.0000 10.0868 0.0000 1.0866 2.6765 -15.1234 -0.0000 -0.0000 0.0000 -0.0000 -0.0000 0.0000
 -21.0189 32.9062 -3.7708 6.0013 -11.3630 -1.2178 -0.3110 31.6541 7.3317 2.1771 -0.0000 0.0000 -8.6519 -6.9469 -0.6294 -6.5824 0.0000 0.0000 -3.9738 3.9940 -3.8708 3.5527 0.0000 0.0000 -7.1811 7.9998 6.2759 -10.0113 0.0000 0.0000 -3.5439 -1.2680 -9.2509 0.4145 -0.9583 11.3500 1.1220 -39.3654 4.5678 -2.4715 50.4396 5.6266 -4.5830 31.4942 19.3812 -26.5741 0.0421 -24.2239 -0.0001 -18.0713 -0.0000 -8.5374 4.8740 -0.5594 -0.0000 0.0000 -0.0000 -0.0000 0.0000 -0.0000 -1.0326 -10.6358 -23.2400 -50.6110 -10.5650 33.0886 -0.0000 10.1755 0.0000 1.0271 2.6728 -15.1518 -0.0000 0.0000 -0.0000 -0.0000 0.0000 -0.0000
 -21.0019 32.9047 -3.7548 6.0025 -11.3214 -1.2343 -0.2598 31.6575 7.3029 2.1298 0.0000 0.0000 -8.6780 -7.0001 -0.6956 -6.6098 0.0000 -0.0000 -3.9825 3.9851 -3.8882 3.6393 0.0000 0.0000 -7.2372 7.9567 6.2649 -10.0598 0.0000 0.0000 -3.5690 -1.2682 -9.2075 0.5052 -0.9617 11.3627 1.2447 -39.4166 4.6066 -2.2187 50.5859 5.4053 -4.4745 31.4856 19.2660 -26.1948 -0.1135 -24.7749 -0.0001 -18.1552 -0.0000 -8.4798 4.8960 -0.6003 -0.0000 0.0000 -0.0000 -0.0000 0.0000 -0.0000 -1.0067 -10.6050 -23.2333 -50.2572 -10.2293 33.1560 -0.0000 10.1881 0.0000 1.2724 2.5220 -15.0683 -0.0000 -0.0000 0.0000 -0.0000 -0.0000 0.0000
 -20.9824 32.9009 -3.7382 6.0136 -11.3592 -1.2291 -0.2080 31.6780 7.2500 2.1200 0.0000 0.0000 -8.7365 -6.9877 -0.7447 -6.5693 0.0000 0.0000 -3.9827 4.0001 -3.9283 3.6618 0.0000 0.0000 -7.2831 7.9689 6.2867 -10.0376 0.0000 0.0000 -3.6025 -1.2858 -9.1633 0.5594 -0.9857 11.3720 1.1802 -39.5651 4.6019 -1.7583 50.7129 5.1268 -4.4281 31.4840 19.1318 -26.1007 -0.0838 -25.3672 -0.0001 -18.0944 -0.0000 -8.3333 4.9864 -0.6991 -0.0000 0.0000 -0.0000 -0.0000 0.0000 -0.0000 -1.0134 -10.5727 -23.2470 -49.9066 -9.7666 33.4287 -0.0000 10.1589 0.0000 1.2833 2.4819 -14.9264 -0.0000 -0.0000 0.0000 -0.0000 -0.0000 0.0000
 -20.9697 32.8978 -3.7138 6.0301 -11.5108 -1.2234 -0.1403 31.7446 7.2027 2.1180 0.0000 -0.0000 -8.8002 -6.8986 -0.7068 -6.5662 0.0000 -0.0000 -3.9779 4.0749 -3.9509 3.6538 0.0000 -0.0000 -7.3101 8.0315 6.3242 -10.0820 0.0000 -0.0000 -3.6464 -1.2812 -9.1598 0.5767 -0.9903 11.3659 1.0884 -39.7718 4.5864 -1.6870 50.8068 5.2114 -4.4656 31.4956 19.1512 -25.9302 -0.1356 -25.5860 -0.0001 -17.8401 -0.0000 -8.3692 5.0375 -0.8307 -0.0000 0.0000 -0.0000 -0.0000 0.0000 -0.0000 -1.0307 -10.5377 -23.2549 -49.7676 -9.4453 33.6372 -0.0000 10.1558 0.0000 1.3065 2.4988 -14.8230 -0.0000 0.0000 -0.0000 -0.0000 0.0000 -0.0000
 -20.9632 32.8982 -3.6843 6.0551 -11.6496 -1.2357 -0.0566 31.8369 7.1702 2.0559 0.0000 -0.0000 -8.8007 -6.8454 -0.6447 -6.5567 0.0000 -0.0000 -3.9737 4.0755 -3.9510 3.6501 -0.0000 0.0000 -7.3191 8.1613 6.3387 -10.0557 0.0000 -0.0000 -3.6795 -1.2690 -9.1738 0.5372 -0.9874 11.3532 1.0321 -39.9500 4.6173 -1.8006 50.8937 5.3391 -4.5520 31.4791 19.2460 -26.1028 -0.0888 -25.3229 -0.0001 -17.8091 -0.0000 -8.5432 5.0469 -0.6782 -0.0000 0.0000 -0.0000 -0.0000 0.0000 -0.0000 -1.0502 -10.4864 -23.2642 -49.5454 -9.1512 33.5632 -0.0000 10.0922 0.0000 1.4803 2.3801 -14.7812 -0.0000 -0.0000 0.0000 -0.0000 -0.0000 0.0000
 -20.9561 32.8996 -3.6435 6.0779 -11.6740 -1.2608 0.0268 31.8876 7.1498 1.9880 -0.0000 -0.0000 -8.7986 -6.8512 -0.5205 -6.5485 0.0000 -0.0000 -3.9281 4.1329 -3.9462 3.6533 -0.0000 0.0000 -7.3384 8.1391 6.2629 -10.0557 0.0000 -0.0000 -3.7320 -1.2732 -9.1862 0.4556 -1.0063 11.3531 1.0733 -40.0384 4.6794 -1.7556 51.0104 5.2443 -4.6206 31.3873 19.4002 -26.2925 -0.1564 -24.8702 -0.0001 -17.8603 -0.0000 -8.4642 4.9784 -0.7357 -0.0000 0.0000 -0.0000 -0.0000 0.0000 -0.0000 -1.0692 -10.4629 -23.2404 -49.6361 -9.0837 33.2642 -0.0000 10.1678 0.0000 1.3486 2.4589 -14.8471 -0.0000 -0.0000 0.0000 -0.0000 -0.0000 0.0000
 -20.9479 32.8983 -3.6055 6.0665 -11.6601 -1.2895 0.1082 31.8556 7.1420 1.9867 -0.0000 0.0000 -8.8354 -6.8281 -0.4606 -6.5618 0.0000 -0.0000 -3.9055 4.1895 -3.9439 3.7800 -0.0000 0.0000 -7.4354 8.0800 6.2161 -10.0524 0.0000 -0.0000 -3.7764 -1.2858 -9.1848 0.4022 -1.0315 11.3548 1.1628 -40.0539 4.7826 -1.4716 51.1471 4.8881 -4.6699 31.2542 19.5138 -26.4039 -0.2629 -24.5397 -0.0001 -18.1332 -0.0000 -8.5194 4.9417 -0.6238 -0.0000 0.0000 -0.0000 -0.0000 0.0000 -0.0000 -1.0487 -10.4107 -23.2162 -49.7650 -9.0307 33.0411 -0.0000 10.1942 0.0000 1.3592 2.4356 -14.8266 -0.0000 -0.0000 0.0000 -0.0000 -0.0000 0.0000
